<svg id="Layer_1" data-name="Layer 1" xmlns="http://www.w3.org/2000/svg" viewBox="0 0 1024 1024"><defs><style>.cls-1{fill:#846542;}.cls-2{fill:#d0995c;}.cls-3{fill:#f1c300;}.cls-4{fill:#e1a87a;}.cls-5{fill:#cececd;}.cls-6{fill:#e95724;}.cls-7{fill:#bf8954;}.cls-8{fill:#f3cd0d;}.cls-9{fill:#1d1f1c;}.cls-10{fill:#dcdddd;}.cls-11{fill:#b7b7b7;}.cls-12{fill:#ea6347;}.cls-13{fill:#d74417;}.cls-14{fill:#e0b900;}.cls-15{fill:#e7b2c8;}.cls-16{fill:#97794d;}.cls-17{fill:#b59e7e;}.cls-18{fill:#876945;}.cls-19{fill:#dca5bf;}.cls-20{fill:#1d1e1c;}.cls-21{fill:#fff;}.cls-22{fill:#724712;}.cls-23{fill:#87683e;}</style></defs><path class="cls-1" d="M107.6,319.5c-9.4,5.39,5.93,55.15,26.8,93.8a297.33,297.33,0,0,0,69.67,85.32,265.39,265.39,0,0,0,28-6.07c11.23-3.08,15.83-5.13,26-7.69a194.85,194.85,0,0,1,29.22-5.05A837.89,837.89,0,0,1,178.13,386.9C137,345.36,115.54,314.93,107.6,319.5Z"/><path class="cls-2" d="M3,621.35q1,58.06,2,116.14l83.67-80Z"/><path class="cls-3" d="M257.59,196.78l-42.7-18L24.48,630.42a26,26,0,0,0,3.3,11.48,25.3,25.3,0,0,0,11.76,10.83l1.29.55A25.59,25.59,0,0,0,57,654a26,26,0,0,0,10.17-5.55Z"/><path class="cls-4" d="M5,737.49l62.43-89,21.24,9Z"/><rect class="cls-5" x="224.38" y="123.39" width="38.8" height="93.01" transform="translate(-7.48 328.53) rotate(-67.14)"/><rect class="cls-6" x="231.23" y="75.25" width="65.68" height="93.01" rx="22.37" transform="translate(49.29 317.79) rotate(-67.14)"/><path class="cls-7" d="M5,737.49q9.6-53.6,19.21-107.19L3,621.35Q4,679.42,5,737.49Z"/><path class="cls-8" d="M257.54,196.75,67.13,648.39c-.89,7,3.55,13.18,9.38,14.35,4.44.89,9.25-1.2,12.17-5.26L279.1,205.84Z"/><path class="cls-9" d="M251,194,221.8,181.7l-194,460.2a25.3,25.3,0,0,0,11.76,10.83l1.29.55A25.59,25.59,0,0,0,57,654Z"/><rect class="cls-10" x="256.45" y="171.72" width="38.8" height="23.39" transform="translate(-0.33 366.35) rotate(-67.14)"/><rect class="cls-11" x="192.26" y="144.66" width="38.8" height="23.39" transform="translate(-14.64 290.65) rotate(-67.14)"/><path class="cls-12" d="M263.31,123.59H329a0,0,0,0,1,0,0v3.17A20.22,20.22,0,0,1,308.77,147H263.31a0,0,0,0,1,0,0V123.59A0,0,0,0,1,263.31,123.59Z" transform="translate(56.44 355.62) rotate(-67.14)"/><path class="cls-13" d="M199.12,96.52h45.46a20.22,20.22,0,0,1,20.22,20.22v3.17a0,0,0,0,1,0,0H199.12a0,0,0,0,1,0,0V96.52A0,0,0,0,1,199.12,96.52Z" transform="translate(42.12 279.92) rotate(-67.14)"/><path class="cls-14" d="M214.9,178.78,24.49,630.42c-4.39,5.52-11.91,6.66-16.83,3.3-3.73-2.56-5.59-7.46-4.72-12.39L193.35,169.69Z"/><path class="cls-9" d="M14,716.39a23.72,23.72,0,0,0-9.35-1.47q.19,11.3.4,22.57l16.9-16.17A23.5,23.5,0,0,0,14,716.39Z"/><path class="cls-15" d="M251,814.69c20,10.87,40.17,21.46,60.52,31.45,10.2,4.94,20.39,9.85,30.73,14.41,5.14,2.33,10.33,4.52,15.5,6.78s10.38,4.34,15.63,6.34c2.63,1,5.22,2.09,7.85,3.05l7.88,2.94c2.63,1,5.28,1.85,7.92,2.78l4,1.37,4,1.28c2.66.85,5.31,1.74,8,2.54l8,2.39c2.67.78,5.35,1.46,8,2.19,1.33.35,2.67.74,4,1.06l4,1c21.45,5.22,43.25,8.23,64.47,7.69a137,137,0,0,0,30.94-4.24,108,108,0,0,0,28-11.38,87.35,87.35,0,0,0,22.6-18.68,93.4,93.4,0,0,0,8.81-11.92A113.46,113.46,0,0,0,599,842.37a187.62,187.62,0,0,0,10.52-29.59c2.75-10.36,5-21,6.75-31.9,3.7-21.73,6.15-44.14,8.81-66.79s5.74-45.57,10.26-68.54c2.31-11.47,5-22.95,8.24-34.34a310.77,310.77,0,0,1,11.67-33.82,253.76,253.76,0,0,1,16.22-32.34c1.5-2.64,3.2-5.16,4.82-7.73s3.42-5,5.15-7.52,3.61-4.9,5.51-7.28l2.88-3.55,1.44-1.77,1.51-1.71a202.1,202.1,0,0,1,26.16-25.35,218.38,218.38,0,0,1,30-20.29,221.84,221.84,0,0,1,32.64-14.91,260.18,260.18,0,0,1,34.1-10c23-5.1,46.39-7.2,69.56-7.48a473.38,473.38,0,0,1,68.91,4.84c11.36,1.6,22.64,3.59,33.84,5.85,5.6,1.15,11.17,2.4,16.73,3.68l8.33,2,8.28,2.14-17-1.7c-5.66-.52-11.33-1-17-1.4q-17-1.29-33.94-1.84c-11.3-.34-22.58-.42-33.82-.11s-22.44.86-33.57,1.94-22.16,2.53-33.05,4.53a304.06,304.06,0,0,0-32.19,7.52A270.64,270.64,0,0,0,790,476a219.35,219.35,0,0,0-28.58,15,193.13,193.13,0,0,0-25.55,19.17A180.37,180.37,0,0,0,714,533.15c-13.22,16.5-23.45,35.3-31.19,55.31a351.22,351.22,0,0,0-17.1,62.95c-4.11,21.7-6.89,43.91-9.54,66.42-1.39,11.24-2.74,22.58-4.24,34s-3.13,22.89-5.25,34.42-4.66,23.11-8,34.69a200.4,200.4,0,0,1-13,34.33,142.49,142.49,0,0,1-9.47,16.39,122.44,122.44,0,0,1-11.87,15.15,111.56,111.56,0,0,1-30.54,23.54,132,132,0,0,1-35.52,12.87,162.87,162.87,0,0,1-36.72,3.26,222.7,222.7,0,0,1-35.76-3.86l-4.37-.85c-1.46-.28-2.92-.55-4.35-.9l-8.62-2c-5.69-1.51-11.37-3.05-16.94-4.85-11.16-3.52-22.13-7.44-32.82-11.94s-21.25-9.21-31.55-14.38c-5.18-2.52-10.25-5.26-15.35-7.9s-10.13-5.43-15.08-8.33q-15-8.5-29.45-17.72c-9.69-6.07-19.17-12.47-28.57-18.94-4.67-3.29-9.34-6.57-14-9.92S255.51,818.11,251,814.69Z"/><path class="cls-16" d="M211.32,916.13c36.08,39.76,185.12,36.26,240.76-46.43,52.76-78.4,6.1-196.34,3.63-202.31-8.59-20.74-46.92-104.46-55.33-144.72-4.07-19.46-6.35-39.14-6.35-39.14-1.48-12.76-2.2-23.89-2.56-32.79-6.18.91-15.64,3.26-23.26,10.49-19.6,18.58-13.92,56.87-14,56.87s-.12-3.83.53-19.94a699.49,699.49,0,0,0-31.14-122.67A699.75,699.75,0,0,0,290,296.22,62.82,62.82,0,0,1,294.06,319a64.65,64.65,0,0,1-6.74,27.46c-19.23,40.41-102.57,117.92-107,157.9-1.94,17.39,2.32,24.24-1.34,53.34a338.6,338.6,0,0,1-12.75,58.58c-6.43,20.69-7.08,36.61-4,56,2.15,13.7,6.25,23.06,9.59,31C200.1,771,214.26,804.79,206.09,834.59c-4.94,18-14.22,24.12-12.85,42.62C193.24,877.21,194.78,897.89,211.32,916.13Z"/><path class="cls-17" d="M280,847.64c43.62-73.92,21.36-151.47,16.84-166.16a74.52,74.52,0,0,0-7-19.65c-8.47-16.29-21.6-24.68-26.1-27.76-18.53-12.69-53.73-42.8-103.58-87.41a664.39,664.39,0,0,0-9.84,184.52c10.44,118.39,48,168.52,57.84,181,1.32,1.67,2.42,3,3.15,3.91A195.19,195.19,0,0,0,280,847.64Z"/><path class="cls-15" d="M206.42,931.26h90.91a.95.95,0,0,1,.95.95v2.7a8.93,8.93,0,0,1-8.93,8.93H211.47a7.85,7.85,0,0,1-7.85-7.85V934a2.79,2.79,0,0,1,2.79-2.79Z" transform="translate(501.9 1875.09) rotate(180)"/><ellipse class="cls-18" cx="414.79" cy="207.76" rx="129.99" ry="104.86" transform="matrix(0.57, -0.82, 0.82, 0.57, 7.88, 430.55)"/><path class="cls-16" d="M139.17,328.6C163,361.63,232,389.41,258.82,405c36.25,21,78.46,66.4,100,174.54l57.57-6.4A385.91,385.91,0,0,1,394,483.53,390.65,390.65,0,0,1,405.12,332a212,212,0,0,1,.23-120.39C360.93,187.08,324.74,186,306,187.13c-32.48,2-60.79,13.87-72.77,18.89-32.55,13.62-46.44,27.19-80.76,34.75a184.29,184.29,0,0,1-38.56,4.28l-4,8.5q1.89,10.56,3.77,21.1A169,169,0,0,0,139.17,328.6Z"/><rect class="cls-19" x="107.98" y="242.66" width="22.07" height="16.92" rx="8.46" transform="translate(139.21 528.29) rotate(-158.81)"/><circle class="cls-20" cx="276.85" cy="250.79" r="11.2"/><circle class="cls-21" cx="269.47" cy="253.65" r="1.91"/><path class="cls-21" d="M227.39,277.22a77.23,77.23,0,0,1,21.36,7.61,86.34,86.34,0,0,1,9.72,6,91.67,91.67,0,0,1,8.82,7.31,93.61,93.61,0,0,1,7.72,8.46,82.08,82.08,0,0,1,6.47,9.44,76.2,76.2,0,0,1,8.55,21,119.92,119.92,0,0,0-10.62-19.7,99.89,99.89,0,0,0-6.7-8.86,98.15,98.15,0,0,0-7.58-8.08A104.86,104.86,0,0,0,247.55,287,121.27,121.27,0,0,0,227.39,277.22Z"/><path class="cls-21" d="M223.58,280.74a44.43,44.43,0,0,1,13.59,8,52,52,0,0,1,5.65,5.65c.83,1,1.69,2.07,2.43,3.19.38.55.77,1.09,1.14,1.65l1.06,1.71a47.17,47.17,0,0,1,5.65,14.91,42.86,42.86,0,0,1,.25,15.76,74.82,74.82,0,0,0-2.62-15.19,63.29,63.29,0,0,0-2.56-7.15c-.49-1.16-1-2.31-1.58-3.44s-1.16-2.25-1.84-3.31a60.73,60.73,0,0,0-9.23-12A78.16,78.16,0,0,0,223.58,280.74Z"/><path class="cls-21" d="M218,283.91a36.57,36.57,0,0,1,11.23,11,37.84,37.84,0,0,1,3.69,7.12,16,16,0,0,1,.66,1.91l.59,1.93c.36,1.29.6,2.62.89,3.93a41.05,41.05,0,0,1-.72,16,40.14,40.14,0,0,1-6.58,14.28,65.39,65.39,0,0,0,4.18-14.76,47.62,47.62,0,0,0,.58-7.52,43.2,43.2,0,0,0-.55-7.46,45.37,45.37,0,0,0-4.83-14.15A55.79,55.79,0,0,0,218,283.91Z"/><path class="cls-16" d="M420.7,140.38c4.39-1.53,77.21-25.24,124.25,21.38,25.65,25.43,29.28,57.53,30,66.9,3.43,46.61-24.9,87.31-58.47,108.52-53,33.45-109.71,12.54-116.1,10.06-5.5-24.36-12.1-50.07-20-76.88-8.34-28.15-17.26-54.49-26.38-78.94C362.81,179.05,384.11,153.11,420.7,140.38Z"/><path class="cls-15" d="M383.16,220.65a102.42,102.42,0,0,1,19.55,82.18c48.15,12.5,90.51-8.67,100-38.61,6-18.8.12-44.6-17.56-59.2-20.44-16.88-47.15-11-58.55-8.3A96.33,96.33,0,0,0,383.16,220.65Z"/><path class="cls-17" d="M314.22,465.92c6.51-17.62,12.89-29.87,8.74-45.87-1-3.74-5-17.36-27.3-34.95a161.65,161.65,0,0,0-56.8-28.4c-26.21-7.52-63.62-21.24-112.27-48.64,12.94,23.57,27.28,37.38,38,45.66,5.83,4.49,7.87,5.24,23.6,16C212.67,386.56,224.9,395,227.08,399c11.86,21.72-31.53,45.83-54.91,104.22C149,561,156.62,624.76,162.18,672.3c1.55,13.23,3.4,24.2,4.83,31.86l129.87-22.68a322.71,322.71,0,0,1-5.47-40.86c-1.15-16.82-.89-33.49,1.13-55.22C297.18,535.58,300.1,504.13,314.22,465.92Z"/><path class="cls-16" d="M31,411.27c-4.39,10.54,61.47,49.84,122,75.27a617.68,617.68,0,0,0,158.19,42.75,228.19,228.19,0,0,0,23.15-21.77c5.22-5.64,11.83-12.31,19.37-22.15a223,223,0,0,0,13.43-19.58c-46.89-4.77-114.35-13.3-195-29.54C84.48,418.58,34.66,402.58,31,411.27Z"/><path class="cls-22" d="M126.59,306.16a53.36,53.36,0,0,0,8.3-1.28,32.33,32.33,0,0,0,7.43-2.79,31.67,31.67,0,0,0,6.51-4.53,49.78,49.78,0,0,0,5.68-6.16,17.89,17.89,0,0,1-3.51,8.14,20.59,20.59,0,0,1-6.94,5.86,21,21,0,0,1-8.76,2.38A18.33,18.33,0,0,1,126.59,306.16Z"/><path class="cls-23" d="M371.07,890c-3.64-.32-10.09,1.7-13.64,2.41-3.15.63-7.62,1.52-11.41-.8-1.65-1-4.18-3.38-3.81-5.66s3.59-3.69,10.07-6.71c1.41-.65,1.86-.82,2.61-1.16,3.43-1.56,12.08-5.52,13.89-13,1-4,.07-9.56-3.66-12.73a12.67,12.67,0,0,0-8.23-2.76c-.91,0-3.39,0-8.07,2.13A37.11,37.11,0,0,0,335.7,861a29.33,29.33,0,0,0-7.07,11.81,26.29,26.29,0,0,0-.67,12.08,22.33,22.33,0,0,0,4.66,10.44A22.6,22.6,0,0,0,340,901.1a28.73,28.73,0,0,0,10.39,3.08c8.31.87,14.35-2,18.31-3.94,5.44-2.61,6-4.39,6.1-5.3a5,5,0,0,0-2.21-4.53A3.44,3.44,0,0,0,371.07,890Zm-31.48-14.85c-1.44-1.69,2.93-9,9.11-12.16,1.93-1,5.72-2.5,6.83-1.21,1.24,1.44-1.55,5.63-1.77,5.94a15.06,15.06,0,0,1-4.85,4.38C347,873.26,340.88,876.63,339.59,875.12Z"/><rect class="cls-23" x="343.22" y="820.5" width="7.62" height="22.18" rx="3.75" transform="matrix(0.98, -0.17, 0.17, 0.98, -139.49, 73.13)"/><rect class="cls-23" x="360.68" y="821.11" width="7.62" height="22.18" rx="3.75" transform="translate(306.18 -74.45) rotate(19.97)"/><rect class="cls-23" x="327.93" y="826.91" width="7.62" height="22.18" rx="3.75" transform="translate(1124.72 1266.32) rotate(139.97)"/><rect class="cls-23" x="318.31" y="840.19" width="7.62" height="22.18" rx="3.75" transform="translate(1232.08 871.86) rotate(112.02)"/><rect class="cls-23" x="374.27" y="830.3" width="7.62" height="22.18" rx="3.75" transform="translate(749.24 -3.08) rotate(47.92)"/><path class="cls-14" d="M82.71,649.35a2.31,2.31,0,0,1-1.54-.1h0a4.17,4.17,0,0,1-1.88-1.75h0a6.37,6.37,0,0,1-.88-2.45h0a3,3,0,0,1,.13-1.45h0a1.34,1.34,0,0,1,.12-.24h0A2.56,2.56,0,0,1,80,642.23h0l.27-.08h0l-1.46-.77h0c-1.25-.66-2.65-1.37-3.09-1.55h0l-.08,0h0a3.44,3.44,0,0,1-.78-.18h0a1,1,0,0,1-.4-.28h0a.6.6,0,0,1-.07-.58h0a1.18,1.18,0,0,1,1.53-.65h0a1.2,1.2,0,0,1,.35.22h0l0,0h0l.15.1h0l.52.3h0l1.64.88h0c1.16.6,2.53,1.29,3.56,1.76h0a1.31,1.31,0,0,1,.32-.29h0A.7.7,0,0,1,83,641h0a1.15,1.15,0,0,1,.33.09h0a.75.75,0,0,1,.37.31h0a1,1,0,0,1,.11.41h0c0,.16,0,.31,0,.46h0a4.79,4.79,0,0,1,.75.23h0a3,3,0,0,1,.4.2h0a.86.86,0,0,1,.31.38h0a.64.64,0,0,1,0,.41h0l0,.07h0a1.24,1.24,0,0,1-.41.46h0a.86.86,0,0,1-.52.13h0l-.21,0h0a10.31,10.31,0,0,1,.16,1.12h0a6.55,6.55,0,0,1-.25,2.95h0v0h0a1.85,1.85,0,0,1-1.21,1.15Zm-2.37-3.15a3.62,3.62,0,0,0,1.47,1.63h0a.5.5,0,0,0,.39,0h0a.57.57,0,0,0,.33-.36h0a4,4,0,0,0,.09-1.74h0c-.07-.65-.2-1.37-.31-2.06h0l-.48-.07h0a3.65,3.65,0,0,0-1.28,0h0A.9.9,0,0,0,80,644h0a.75.75,0,0,0-.07.12h0v0h0a2.92,2.92,0,0,0,.39,2Zm5.07-6a6.65,6.65,0,0,1-2.27,0h0a17.07,17.07,0,0,1-3.3-.84h0l-.12,0h0a.92.92,0,0,1-.48-.38h0a.65.65,0,0,1,0-.56h0l.06-.12h0a.91.91,0,0,1,.66-.45h0a1.15,1.15,0,0,1,.52.08h0l.38.16h0a14.32,14.32,0,0,0,2.53.8h0a3.45,3.45,0,0,0,1.56,0h0c.2-.07.28-.14.32-.24h0a.51.51,0,0,0,0-.23h0a1.66,1.66,0,0,0-.47-1h0a4.86,4.86,0,0,0-1.07-.86h0a11.89,11.89,0,0,0-1.83-.92h0l-.05,0h0a1,1,0,0,1-.46-.32h0a.79.79,0,0,1-.06-.78h0l0-.05h0a.7.7,0,0,1,.37-.37h0a1.23,1.23,0,0,1,.4-.08h0a2.14,2.14,0,0,1,.43.07h0l0,0c.17.09.92.45,1.74,1h0a8.35,8.35,0,0,1,2.3,1.91h0a2.06,2.06,0,0,1,.46,1.71h0l-.09.27h0a2.09,2.09,0,0,1-1.61,1.2Zm3.93-5.55-.06.12h0a.92.92,0,0,1-.57.45h0a.92.92,0,0,1-.37,0h0l-.06.07h0a.81.81,0,0,1-.52.3h0l-.11,0h0l-.11,0h0l-.32-.12h0l-1-.41h0a29.66,29.66,0,0,1-2.83-1.3h0a1,1,0,0,1-.59,0h0l-.06,0h0a.77.77,0,0,1-.39-.41h0a1.33,1.33,0,0,1-.1-.34h0l-.14-.09h0l-.67-.45h0a12.33,12.33,0,0,0-1.86-1h0l-.09,0h0l-.3,0h0a1.86,1.86,0,0,1-.51-.12h0a.72.72,0,0,1-.39-.33h0a.78.78,0,0,1,0-.6h0a.14.14,0,0,1,0-.06h0a.65.65,0,0,1,.34-.35h0a1.25,1.25,0,0,1,.44-.13h0A2.53,2.53,0,0,1,80,630h0l.1,0h0a6.22,6.22,0,0,1,1.17.65h0c.3.21.64.45,1.13.76h0a6.22,6.22,0,0,1,1-1.61h0a3,3,0,0,1,2.18-1.21h0a1.4,1.4,0,0,1,.57.1h0a2.69,2.69,0,0,1,1.07.93h0A8,8,0,0,1,88,631h0a22.88,22.88,0,0,1,1,2.58h0a2.52,2.52,0,0,1,.09.27h0a1.2,1.2,0,0,0,.11.2h0a.82.82,0,0,1,.14.31h0a.54.54,0,0,1,0,.31Zm-3.61-1.41c.75.3,1.36.49,1.77.61h0c0-.19-.12-.42-.2-.67h0a10.87,10.87,0,0,0-1-2.21h0a2,2,0,0,0-.76-.79h0a.54.54,0,0,0-.2,0h0a1.4,1.4,0,0,0-.77.54h0a4.82,4.82,0,0,0-.73,1.23h0c0,.1-.07.19-.1.29h0l.35.22h0c.35.21.82.47,1.29.69h0l.31.13Zm6.16-3.73a1.1,1.1,0,0,1-.4.46h0a.6.6,0,0,1-.45.08h0a2.1,2.1,0,0,1-.45-.09h0a12.44,12.44,0,0,1-1.24-.45h0c-1.86-.76-4.66-2.14-6.28-2.95h0l-2.08-1h0a6.65,6.65,0,0,1-1.16-.67h0a.66.66,0,0,1-.2-.25h0a.82.82,0,0,1,0-.62h0a1,1,0,0,1,.61-.53h0a.83.83,0,0,1,.36,0h0a1.34,1.34,0,0,1,.38.1h0a15.25,15.25,0,0,1,1.42.76h0c.71.4,1.71,1,3.18,1.74h0c1.15.61,2.35,1.17,3.41,1.61h0c.69.28,1.32.5,1.84.66h0l.25.09h0a2.6,2.6,0,0,1,.43.23h0a1,1,0,0,1,.38.43h0a.57.57,0,0,1,0,.46h0Zm0-2.81-.24-.26.24.27a2.38,2.38,0,0,1-1.31.5h0a3.5,3.5,0,0,1-1.71-.24h0a3.43,3.43,0,0,1-1.15-.76h0A8,8,0,0,1,86,624.1h0a2.38,2.38,0,0,1-.2-1.74h0a.56.56,0,0,1,0-.12h0A2.45,2.45,0,0,1,87,621.09h0a3.21,3.21,0,0,1,2.28-.26h0a4.49,4.49,0,0,1,.65.21h0a4.07,4.07,0,0,1,2.27,2.38h0a3.93,3.93,0,0,1,.11,2.73h0a1.69,1.69,0,0,1-.41.6Zm-4.4-4s0,.07,0,.13h0a1.62,1.62,0,0,0,.1.52h0A4.29,4.29,0,0,0,89,625.32h0a1.71,1.71,0,0,0,.41.23h0a2.09,2.09,0,0,0,.84.16h0a.75.75,0,0,0,.56-.21h0a.35.35,0,0,0,.07-.12h0a1.74,1.74,0,0,0,0-1.07h0a2.8,2.8,0,0,0-.5-1h0a3.4,3.4,0,0,0-1.19-.93h0a2,2,0,0,0-.88-.14h0a1.16,1.16,0,0,0-.51.1h0a.77.77,0,0,0-.24.22h0l0,.16h0v0Zm-.11.06-.24-.13.24.13Zm-10.17,31a5.93,5.93,0,0,1-.74-1.45,6.83,6.83,0,0,1-.16-3.17l.24-.45a2.12,2.12,0,0,1,.92-.84,1.28,1.28,0,0,1,1.29.25,2.15,2.15,0,0,1,.89,1.53,5,5,0,0,1-.09,2c-.17.68-.2,1.07-.1,1.2s.31.11.61,0a4.17,4.17,0,0,0,1.22-1.4,8,8,0,0,0,1-2.08,7.67,7.67,0,0,0,.3-1.51c0-.41.58-.64.63-.85s.24-.31.55-.29c.28.6-.08,1.09-.09,1.61a7.72,7.72,0,0,1-.25,1.82,10.3,10.3,0,0,1-.92,2.34l-.29.51a7.1,7.1,0,0,1-1.46,1.66,2.5,2.5,0,0,1-1,.42,2.28,2.28,0,0,1-1.19-.18A4.28,4.28,0,0,1,77.17,653.78Zm1.09-1.28a5.56,5.56,0,0,0,.17-2c-.08-.39-.23-.62-.44-.7s-.33.15-.35.66a2.38,2.38,0,0,0,.15,1.16A7.25,7.25,0,0,0,78.26,652.5Z"/><path class="cls-14" d="M98,627.63a7.19,7.19,0,0,1-3,2.68h0a.59.59,0,0,1-.47,0h0l-.09-.05h0a.79.79,0,0,1-.33-.39h0a1,1,0,0,1,0-.53h0s0-.06,0-.08h0a.65.65,0,0,1,.35-.36h0a4.5,4.5,0,0,0,1-.68h0a8.19,8.19,0,0,0,.88-.89h0a8.72,8.72,0,0,0,1-1.55h0c.09-.18.17-.36.25-.55h0a7,7,0,0,0,.35-1.18h0a7.79,7.79,0,0,0,.15-1.63h0a3.55,3.55,0,0,0-1-2.17h0a9.65,9.65,0,0,0-2.58-1.58h0a4.09,4.09,0,0,1,.25.46h0a4.08,4.08,0,0,1,.3.85h0a2.72,2.72,0,0,1,0,1.1h0a1.27,1.27,0,0,1-.06.18h0a1.08,1.08,0,0,1-.28.4h0a1.59,1.59,0,0,1-.51.33h0a2.48,2.48,0,0,1-1.76,0h0l-.17-.07h0a4.08,4.08,0,0,1-1.42-1h0a10.54,10.54,0,0,1-1.24-1.46h0c-.08-.13-.22-.35-.4-.67h0a6.54,6.54,0,0,1-.5-1.1h0a4.37,4.37,0,0,1-.27-1.23h0a1.69,1.69,0,0,1,.1-.75h0a1.75,1.75,0,0,1,.2-.35h0a.65.65,0,0,1,.18-.16h0a.26.26,0,0,1,.23,0h0l0,0h0a.7.7,0,0,1,.26.3h0l0-.05h0l.11-.22h0a.73.73,0,0,1,.91-.39h0l0,0h0l2.72,1.3h0c.9.44,1.78.92,2.66,1.41h0A10.8,10.8,0,0,1,98,619.1h0a5.16,5.16,0,0,1,.79.88h0a4.63,4.63,0,0,1,.69,1.8h0a7,7,0,0,1,0,2h0a8.69,8.69,0,0,1-.53,2h0a10.62,10.62,0,0,1-1,1.82Zm-8.25-11a3.15,3.15,0,0,0,.19.43h0l.26.48h0a4.91,4.91,0,0,0,.56.84h0c.21.25.43.49.65.74h0a4.34,4.34,0,0,0,1.51,1.23h0a1.71,1.71,0,0,0,.51.13h0c.11,0,.16,0,.18,0h0v0h0a.26.26,0,0,0,0-.11h0a2.08,2.08,0,0,0-.22-.39h0a8.54,8.54,0,0,0-1.11-1.33h0A12.76,12.76,0,0,0,91,617.43h0l-1.32-1h0a1.35,1.35,0,0,0,.08.24Z"/><path class="cls-14" d="M97,615.94a3.58,3.58,0,0,1-1.48.69h0a.53.53,0,0,1-.33,0h0a.62.62,0,0,1-.19-.12h0a1,1,0,0,1-.28-.46h0a1,1,0,0,1,0-.53h0s0,0,0,0h0a.51.51,0,0,1,.37-.31h0a2.58,2.58,0,0,0,.89-.42h0a.57.57,0,0,0,.21-.24h0a.46.46,0,0,0,0-.39h0l0,0h0l-.06-.06h0a.83.83,0,0,0-.31-.19h0a1.46,1.46,0,0,0-.56-.09h0a1.65,1.65,0,0,0-.81.24h0c-.17.09-.33.18-.5.29h0a2,2,0,0,1-.55.27h0a1.74,1.74,0,0,1-1.17,0h0a1.91,1.91,0,0,1-.32-.16h0a2.25,2.25,0,0,1-1-1.41h0a4,4,0,0,1-.12-1.74h0l0-.12h0a.48.48,0,0,1,.29-.27h0a.5.5,0,0,1,.38,0h0l.1.05h0a1,1,0,0,1,.44.82h0a2.81,2.81,0,0,0,.07.5h0a2.17,2.17,0,0,0,.21.54h0a.83.83,0,0,0,.34.33h0l0,0h0A.5.5,0,0,0,93,613h0a6.32,6.32,0,0,0,.56-.33h0a2.59,2.59,0,0,1,.63-.29h0a5,5,0,0,1,.89-.2h0a2.08,2.08,0,0,1,.93.06h0a2.46,2.46,0,0,1,.29.09h0a2.77,2.77,0,0,1,1,.71h0a1.91,1.91,0,0,1,.48,1.46h0a2.6,2.6,0,0,1-.14.64h0a1.85,1.85,0,0,1-.63.81ZM96.2,614l-.09,0,.09,0Zm0,0h0Z"/><path class="cls-14" d="M86.8,613.46a.54.54,0,0,1-.1-.57.38.38,0,0,1,.51-.16.79.79,0,0,1,.26.26l.68,1a.5.5,0,0,1,.1.57.38.38,0,0,1-.5.16.72.72,0,0,1-.27-.26Z"/><path class="cls-14" d="M85.78,615.52c-.19-.07-.38-.15-.42-.39a.38.38,0,0,1,.3-.44.88.88,0,0,1,.37,0l1.13.38c.2.07.39.14.42.39a.37.37,0,0,1-.3.44.8.8,0,0,1-.37-.06Z"/><path class="cls-14" d="M85.66,617.53c-.21,0-.41,0-.54-.2a.37.37,0,0,1,.11-.52.75.75,0,0,1,.36-.09l1.18-.1c.21,0,.41,0,.54.2a.37.37,0,0,1-.1.52.79.79,0,0,1-.36.09Z"/><path class="cls-14" d="M87.06,618.15a.51.51,0,0,1,.57-.13.37.37,0,0,1,.18.5.62.62,0,0,1-.25.27l-.94.72c-.17.12-.34.23-.56.12a.35.35,0,0,1-.19-.49.69.69,0,0,1,.25-.28Z"/><path class="cls-14" d="M88.6,612.49a.5.5,0,0,1,.13-.55.37.37,0,0,1,.53,0,.77.77,0,0,1,.14.35l.22,1.16a.5.5,0,0,1-.14.56.39.39,0,0,1-.53,0,.83.83,0,0,1-.13-.35Z"/></svg>