<?xml version="1.0" encoding="utf-8"?>
<!-- Generator: Adobe Illustrator 21.0.0, SVG Export Plug-In . SVG Version: 6.00 Build 0)  -->
<svg version="1.1" id="Layer_1" xmlns="http://www.w3.org/2000/svg" xmlns:xlink="http://www.w3.org/1999/xlink" x="0px" y="0px"
	 viewBox="0 0 894.3 439" style="enable-background:new 0 0 894.3 439;" xml:space="preserve">
<style type="text/css">
	.st0{fill:#E2DED6;}
	.st1{fill:none;stroke:#FFFFFF;stroke-width:0.5;stroke-miterlimit:10;}
	.st2{clip-path:url(#SVGID_2_);fill:none;stroke:#4869AF;stroke-linecap:round;stroke-linejoin:round;stroke-miterlimit:10;}
	.st3{fill:none;stroke:#000000;stroke-width:0.5;stroke-miterlimit:10;}
	.st4{font-family:'Helvetica';}
	.st5{font-size:12px;}
	.st6{font-family:'Helvetica-Bold';}
	.st7{fill:none;stroke:#000000;stroke-width:2;stroke-miterlimit:10;}
</style>
<g>
	<rect x="44.3" y="7.3" class="st0" width="850" height="400"/>
	<path class="st1" d="M44.3,350.2h850 M44.3,293h850 M44.3,235.9h850 M44.3,178.7h850 M44.3,121.6h850 M44.3,64.4h850 M113,407.3
		V7.3 M198.3,407.3V7.3 M283.6,407.3V7.3 M368.9,407.3V7.3 M454.3,407.3V7.3 M539.3,407.3V7.3 M624.6,407.3V7.3 M709.9,407.3V7.3
		 M795.2,407.3V7.3 M880.6,407.3V7.3"/>
	<g>
		<defs>
			<rect id="SVGID_1_" x="44.3" y="7.3" width="850" height="400"/>
		</defs>
		<clipPath id="SVGID_2_">
			<use xlink:href="#SVGID_1_"  style="overflow:visible;"/>
		</clipPath>
		<polyline class="st2" points="44.3,390 44.6,390.8 45,390.2 45.3,389.5 45.6,390.6 45.9,390.4 46.3,391.2 46.6,392 46.9,390.7 
			47.2,390.3 47.6,390.9 47.9,390.7 48.2,390.2 48.6,390.2 48.9,391.4 49.2,391.1 49.5,390.8 49.9,390.7 50.2,390.6 50.5,391.1 
			50.8,390.4 51.2,390.2 51.5,390.1 51.8,390.4 52.1,390.2 52.5,390.7 52.8,391.5 53.1,392.2 53.5,389.4 53.8,389.9 54.1,389.7 
			54.4,387.4 54.8,388.7 55.1,389 55.4,389.8 55.7,386.8 56.1,389.5 56.4,390 56.7,389.7 57.1,390.2 57.4,389.4 57.7,390.2 
			58,390.5 58.4,391.1 58.7,390.1 59,390.4 59.3,391.6 59.7,391.4 60,390.2 60.3,391.3 60.6,391.9 61,393.4 61.3,391.4 61.6,390.4 
			62,393 62.3,392.3 62.6,391.9 62.9,391.5 63.3,392.1 63.6,392.6 63.9,392.8 64.2,392.6 64.6,392.2 64.9,392.1 65.2,392.2 
			65.6,392.6 65.9,391.6 66.2,392.5 66.5,392.5 66.9,392.2 67.2,391.8 67.5,392.1 67.8,392 68.2,392 68.5,392.2 68.8,392 
			69.1,391.6 69.5,391 69.8,387.3 70.1,390.3 70.5,389.1 70.8,391.5 71.1,393.2 71.4,393 71.8,393.2 72.1,392.7 72.4,392.3 
			72.7,392.6 73.1,392.5 73.4,392.6 73.7,392.7 74.1,393 74.4,392.3 74.7,393 75,392.6 75.4,393.9 75.7,392.7 76,393.5 76.3,391.8 
			76.7,393.9 77,394.4 77.3,392.9 77.6,392.3 78,393.2 78.3,394.4 78.6,394.4 79,393.3 79.3,394.2 79.6,395.1 79.9,394.3 
			80.3,394.4 80.6,395 80.9,394.8 81.2,394.4 81.6,394.2 81.9,394.3 82.2,394 82.6,394.6 82.9,393.2 83.2,394.2 83.5,393.4 
			83.9,393.8 84.2,393.1 84.5,393.7 84.8,393.8 85.2,393.7 85.5,394 85.8,393.2 86.1,393.8 86.5,393.5 86.8,393.8 87.1,393.1 
			87.5,394 87.8,393.5 88.1,393 88.4,392.7 88.8,392.2 89.1,392.6 89.4,392.8 89.7,393.5 90.1,392.9 90.4,393.3 90.7,393.2 
			91.1,393.1 91.4,393.8 91.7,393.2 92,393.1 92.4,393.9 92.7,393.2 93,391.2 93.3,392.8 93.7,394 94,392.7 94.3,392.1 94.6,391.8 
			95,388.7 95.3,390.2 95.6,391.9 96,387.9 96.3,389 96.6,390.7 96.9,390 97.3,386.2 97.6,389.5 97.9,390.6 98.2,390.1 98.6,389.9 
			98.9,389.3 99.2,389.4 99.6,388.8 99.9,390.4 100.2,390.3 100.5,390.4 100.9,391.1 101.2,390.9 101.5,390.4 101.8,390.3 
			102.2,389.6 102.5,391.4 102.8,389.4 103.1,390 103.5,389.7 103.8,388.7 104.1,389.5 104.5,389.9 104.8,390 105.1,389 
			105.4,388.2 105.8,387.5 106.1,388.3 106.4,387.7 106.7,387.3 107.1,387.3 107.4,386.9 107.7,386.2 108.1,386.4 108.4,386.1 
			108.7,383.7 109,385.1 109.4,383.6 109.7,384.1 110,382.1 110.3,381.6 110.7,377.7 111,380.2 111.3,377.1 111.6,378.2 112,377.5 
			112.3,376.6 112.6,381.2 113,375.6 113.3,374.4 113.6,375.6 113.9,375.4 114.3,376.2 114.6,377 114.9,376.2 115.2,376.1 
			115.6,375.8 115.9,377 116.2,375.9 116.6,375.6 116.9,376.6 117.2,377.6 117.5,377 117.9,378 118.2,378.4 118.5,378.3 
			118.8,377.9 119.2,379.1 119.5,380.2 119.8,377.1 120.1,378.9 120.5,378.9 120.8,381.1 121.1,383.1 121.5,381.8 121.8,381.9 
			122.1,381.4 122.4,381.4 122.8,381.1 123.1,381.9 123.4,381.2 123.7,381.8 124.1,381.8 124.4,381.2 124.7,382.6 125.1,381.9 
			125.4,383 125.7,382.8 126,384.2 126.4,383 126.7,383.6 127,383.6 127.3,385.2 127.7,384.4 128,385.2 128.3,386 128.6,386.3 
			129,386.4 129.3,385 129.6,386.6 130,384.3 130.3,386.2 130.6,386.6 130.9,386.8 131.3,387.1 131.6,387.6 131.9,387.5 
			132.2,387.4 132.6,387.4 132.9,386.7 133.2,386.3 133.6,386.4 133.9,385.6 134.2,386 134.5,386.7 134.9,386.3 135.2,385.3 
			135.5,384.7 135.8,385.5 136.2,384.8 136.5,384.3 136.8,385.5 137.1,384 137.5,384.5 137.8,385.2 138.1,384.8 138.5,386 
			138.8,384.1 139.1,384.8 139.4,385.1 139.8,385.7 140.1,385.5 140.4,384.4 140.7,384.8 141.1,383.2 141.4,385.4 141.7,384.3 
			142.1,383.1 142.4,384 142.7,383.8 143,384.3 143.4,383.9 143.7,383.6 144,385 144.3,385.4 144.7,384 145,385.8 145.3,384.3 
			145.6,384.7 146,386.4 146.3,388.3 146.6,385.6 147,383.5 147.3,386.3 147.6,383.1 147.9,383.2 148.3,375 148.6,380 148.9,384.5 
			149.2,386.6 149.6,386.7 149.9,387 150.2,386.2 150.6,387 150.9,387.3 151.2,385.8 151.5,386.7 151.9,385.9 152.2,385.9 
			152.5,385.4 152.8,385.5 153.2,385.9 153.5,385.5 153.8,386.6 154.1,386.8 154.5,386.8 154.8,386.4 155.1,387.3 155.5,386.7 
			155.8,386.4 156.1,386.4 156.4,386.4 156.8,385.7 157.1,386.8 157.4,386.3 157.7,386.4 158.1,385.9 158.4,386.8 158.7,386.6 
			159.1,385.6 159.4,387.4 159.7,386.4 160,386.8 160.4,385.9 160.7,387.4 161,386.4 161.3,388.2 161.7,386.7 162,387.1 
			162.3,386.3 162.6,386.5 163,386.8 163.3,387.6 163.6,386.5 164,387.5 164.3,387.7 164.6,387.2 164.9,386.6 165.3,386.7 
			165.6,386 165.9,382.8 166.2,386.1 166.6,387 166.9,386.8 167.2,387.5 167.6,388.2 167.9,388.3 168.2,387.6 168.5,389.6 
			168.9,389.1 169.2,388.8 169.5,388.2 169.8,388.9 170.2,388.2 170.5,389.1 170.8,389.6 171.1,388.4 171.5,388.7 171.8,388.4 
			172.1,387.4 172.5,387 172.8,387.2 173.1,387.4 173.4,387.5 173.8,386.4 174.1,387.1 174.4,387.7 174.7,388.3 175.1,389.4 
			175.4,388 175.7,388.9 176.1,388.8 176.4,389.1 176.7,387.7 177,389.2 177.4,388 177.7,389.2 178,389.2 178.3,389.9 178.7,387.8 
			179,386.8 179.3,385.8 179.6,387.6 180,387.5 180.3,387.2 180.6,386.8 181,386.8 181.3,384.9 181.6,388 181.9,387.8 182.3,387.4 
			182.6,386.8 182.9,386.3 183.2,386.7 183.6,387 183.9,386.6 184.2,386.8 184.6,387.1 184.9,386.7 185.2,380.7 185.5,381.2 
			185.9,385.4 186.2,386.9 186.5,387.1 186.8,387.6 187.2,387.5 187.5,387.4 187.8,388.1 188.1,386.4 188.5,387.2 188.8,385.6 
			189.1,386.2 189.5,386.3 189.8,386.3 190.1,384.7 190.4,385.2 190.8,383.8 191.1,385.2 191.4,385.2 191.7,385 192.1,385.1 
			192.4,385.7 192.7,385.4 193.1,385.1 193.4,385 193.7,383.8 194,384.8 194.4,384.1 194.7,384.6 195,384.7 195.3,383.6 
			195.7,382.7 196,383.6 196.3,383.5 196.6,383.6 197,383.8 197.3,380.4 197.6,382.8 198,384.8 198.3,384.2 198.6,381.8 
			198.9,383.8 199.3,384.2 199.6,383 199.9,383.6 200.2,382.8 200.6,383.9 200.9,383.4 201.2,382.6 201.6,382.4 201.9,380.2 
			202.2,380.8 202.5,376.2 202.9,376 203.2,375.1 203.5,374.6 203.8,373 204.2,370.6 204.5,371.5 204.8,370.9 205.1,372.4 
			205.5,373.5 205.8,373.1 206.1,371.5 206.5,374.2 206.8,376.8 207.1,374.9 207.4,375.4 207.8,374.8 208.1,376.8 208.4,377.3 
			208.7,378 209.1,378.6 209.4,378.1 209.7,379.2 210.1,380.7 210.4,380.8 210.7,380.9 211,381.8 211.4,383 211.7,383.4 212,383.4 
			212.3,384 212.7,382.9 213,384.6 213.3,383.8 213.6,383.5 214,383.7 214.3,383.8 214.6,384.5 215,383.9 215.3,383.4 215.6,383.2 
			215.9,384.7 216.3,383.4 216.6,383.3 216.9,383.1 217.2,382.3 217.6,382.5 217.9,383.9 218.2,384 218.6,384.4 218.9,383.8 
			219.2,383.5 219.5,384.7 219.9,384.9 220.2,382.4 220.5,383.7 220.8,383.1 221.2,383.6 221.5,383.6 221.8,383.5 222.1,382.8 
			222.5,383 222.8,382.4 223.1,381.9 223.5,381 223.8,383 224.1,382.7 224.4,384 224.8,380.1 225.1,381.7 225.4,382 225.7,382.5 
			226.1,381.5 226.4,380.3 226.7,381.4 227.1,380.2 227.4,379.2 227.7,379.4 228,379.2 228.4,379.5 228.7,379.7 229,377.9 
			229.3,377.9 229.7,377.8 230,380.8 230.3,375.8 230.6,375.4 231,375.8 231.3,376.5 231.6,375.5 232,379 232.3,376.2 232.6,379.4 
			232.9,375.1 233.3,374 233.6,375.5 233.9,378.3 234.2,376.2 234.6,377.1 234.9,375.5 235.2,376.5 235.6,375.5 235.9,374.5 
			236.2,374.3 236.5,373.9 236.9,373.2 237.2,373.7 237.5,374.4 237.8,373.9 238.2,373.9 238.5,373.8 238.8,373.7 239.1,372.4 
			239.5,372.2 239.8,373.5 240.1,374 240.5,373 240.8,374.6 241.1,374.9 241.4,376.7 241.8,372.7 242.1,372.7 242.4,370.9 
			242.7,371.4 243.1,370.3 243.4,370.1 243.7,370.7 244.1,368.4 244.4,369 244.7,367.6 245,370.1 245.4,369.8 245.7,371.7 
			246,370.9 246.3,373.6 246.7,373.1 247,374.3 247.3,372.3 247.6,375.5 248,376.8 248.3,377.8 248.6,379.4 249,376.8 249.3,378.2 
			249.6,379.9 249.9,379.9 250.3,378.6 250.6,378.7 250.9,379.5 251.2,379.5 251.6,379.8 251.9,379 252.2,380.2 252.6,380.4 
			252.9,379.8 253.2,379.2 253.5,379 253.9,377.9 254.2,379.4 254.5,379.3 254.8,379.1 255.2,380.8 255.5,381 255.8,381.4 
			256.1,381.1 256.5,382 256.8,382.5 257.1,382 257.5,383.2 257.8,383.8 258.1,384.7 258.4,384.7 258.8,383.6 259.1,383.6 
			259.4,381.2 259.7,381.9 260.1,383 260.4,383.8 260.7,384.3 261.1,384.2 261.4,383.5 261.7,383.7 262,384.1 262.4,384.8 
			262.7,384.8 263,384.2 263.3,384.7 263.7,385 264,385.2 264.3,384.6 264.6,386.4 265,386.3 265.3,386.6 265.6,385.8 266,386 
			266.3,387 266.6,387.2 266.9,388.3 267.3,386.5 267.6,387.8 267.9,388 268.2,388.2 268.6,387.7 268.9,387.5 269.2,387.5 
			269.6,387.4 269.9,387.5 270.2,387.8 270.5,385.5 270.9,386.9 271.2,386.5 271.5,385.9 271.8,386.4 272.2,386.3 272.5,387.1 
			272.8,387.1 273.1,387 273.5,386.2 273.8,386.7 274.1,386.6 274.5,386.7 274.8,386.4 275.1,386.7 275.4,386.9 275.8,386.8 
			276.1,385.5 276.4,385.6 276.7,384.4 277.1,384.7 277.4,385.3 277.7,384.3 278.1,384.8 278.4,384.7 278.7,384.3 279,384.3 
			279.4,383.9 279.7,382.2 280,383 280.3,383.1 280.7,384.8 281,385.4 281.3,382.8 281.6,384.4 282,385.4 282.3,385.2 282.6,385.6 
			283,385.6 283.3,386.2 283.6,385.2 283.9,386.8 284.3,386.3 284.6,385.2 284.9,384.4 285.2,385 285.6,385 285.9,385.9 
			286.2,385.3 286.6,385.2 286.9,386 287.2,385.2 287.5,384.2 287.9,383.8 288.2,385 288.5,385.2 288.8,385 289.2,384.8 289.5,385 
			289.8,384.7 290.1,384.8 290.5,384.3 290.8,385 291.1,385.2 291.5,385 291.8,384.7 292.1,385.2 292.4,386.2 292.8,386.6 
			293.1,384 293.4,384.3 293.7,384.5 294.1,384.2 294.4,383.9 294.7,383 295.1,384 295.4,384.4 295.7,384.5 296,384.2 296.4,384.4 
			296.7,384.4 297,383.4 297.3,384.6 297.7,384.6 298,384.6 298.3,385.5 298.6,384.8 299,384.5 299.3,385.5 299.6,386.2 300,385 
			300.3,386.6 300.6,384.6 300.9,386.5 301.3,387.6 301.6,386.5 301.9,386.4 302.2,386.8 302.6,385 302.9,385.9 303.2,386.4 
			303.6,385.5 303.9,385.2 304.2,384.7 304.5,385.5 304.9,385.1 305.2,385.4 305.5,385 305.8,384.9 306.2,384.7 306.5,385.4 
			306.8,385.2 307.1,386 307.5,385.9 307.8,386.2 308.1,386.3 308.5,386.1 308.8,386.1 309.1,386.7 309.4,387.1 309.8,386.6 
			310.1,383.5 310.4,383.5 310.7,384 311.1,384.6 311.4,384.4 311.7,384.4 312.1,384.8 312.4,384.5 312.7,385.1 313,385 
			313.4,385.2 313.7,385.3 314,386.2 314.3,386.5 314.7,387.4 315,386.3 315.3,386.2 315.6,386.4 316,386.6 316.3,385.9 
			316.6,387.3 317,387.6 317.3,388.8 317.6,387.4 317.9,387.8 318.3,387.5 318.6,386.2 318.9,386.3 319.2,388 319.6,387.8 
			319.9,387.4 320.2,388 320.6,388.2 320.9,388.2 321.2,388.7 321.5,388.4 321.9,388 322.2,387.4 322.5,388.6 322.8,388.4 
			323.2,389.3 323.5,387.8 323.8,387.7 324.1,388.7 324.5,388.6 324.8,389.2 325.1,389.1 325.5,388.7 325.8,388.7 326.1,389.2 
			326.4,389.6 326.8,388.8 327.1,387.4 327.4,388.6 327.7,389.1 328.1,389.5 328.4,388.9 328.7,389.2 329.1,390.3 329.4,389.6 
			329.7,389.2 330,390.1 330.4,389.7 330.7,390.1 331,390.1 331.3,390.8 331.7,390.3 332,389.8 332.3,389.2 332.6,389.8 333,389.1 
			333.3,389.2 333.6,388.8 334,389.2 334.3,389.3 334.6,388.7 334.9,386.7 335.3,388.2 335.6,387.8 335.9,389.1 336.2,389.5 
			336.6,388.6 336.9,389.1 337.2,389.8 337.6,389.9 337.9,389.8 338.2,389.9 338.5,389.6 338.9,389.4 339.2,389.4 339.5,389.5 
			339.8,389.4 340.2,389.6 340.5,389.4 340.8,389.1 341.1,389.4 341.5,389.6 341.8,389.9 342.1,389.5 342.5,389.8 342.8,389.9 
			343.1,390 343.4,389.3 343.8,387.1 344.1,388.4 344.4,389.2 344.7,389.5 345.1,389.2 345.4,389.3 345.7,389.8 346.1,389.9 
			346.4,389.8 346.7,390.1 347,390.6 347.4,390.6 347.7,390.6 348,391 348.3,390.5 348.7,391 349,391.1 349.3,390.5 349.6,390.2 
			350,390.3 350.3,391 350.6,390.6 351,391 351.3,389.9 351.6,390.2 351.9,391.1 352.3,391.2 352.6,390.4 352.9,390.8 353.2,388.9 
			353.6,389.9 353.9,390.2 354.2,388.7 354.6,388.7 354.9,389.1 355.2,389.1 355.5,388.8 355.9,389.4 356.2,389.8 356.5,389.9 
			356.8,389.5 357.2,389 357.5,388.3 357.8,389 358.1,388.7 358.5,388.7 358.8,388.3 359.1,388 359.5,388 359.8,387.4 360.1,387.8 
			360.4,387.4 360.8,388.3 361.1,388 361.4,388 361.7,387.8 362.1,388.6 362.4,388.3 362.7,388.5 363.1,388.1 363.4,388.2 
			363.7,388.2 364,387.5 364.4,384 364.7,387.6 365,387.5 365.3,387.1 365.7,388.3 366,388.1 366.3,388.1 366.6,387.8 367,387.6 
			367.3,388 367.6,387 368,385.5 368.3,386.8 368.6,387 368.9,386.2 369.3,385.9 369.6,387.6 369.9,386.3 370.2,386.3 370.6,387.4 
			370.9,387.3 371.2,387.2 371.6,387.4 371.9,387.4 372.2,388.4 372.5,387.5 372.9,386.3 373.2,386.9 373.5,386.7 373.8,386.6 
			374.2,387.1 374.5,387 374.8,387.1 375.1,386.8 375.5,386.3 375.8,386.8 376.1,386.8 376.5,386.6 376.8,386.5 377.1,386.6 
			377.4,386.3 377.8,386.2 378.1,386.2 378.4,386.2 378.7,385.5 379.1,384.8 379.4,384.8 379.7,384.9 380.1,385 380.4,384.7 
			380.7,385.1 381,384.2 381.4,384.2 381.7,383.2 382,382.4 382.3,382.2 382.7,382.7 383,381.7 383.3,381.8 383.6,380.9 384,381.5 
			384.3,381.6 384.6,381.8 385,380.2 385.3,381.4 385.6,383.6 385.9,382.3 386.3,381.9 386.6,380.9 386.9,379.7 387.2,379.9 
			387.6,380.2 387.9,378.8 388.2,379.4 388.6,378.8 388.9,378.8 389.2,378.2 389.5,378.8 389.9,381.5 390.2,380 390.5,380 
			390.8,380.9 391.2,381.5 391.5,381.8 391.8,381.7 392.1,382 392.5,382.6 392.8,382.1 393.1,382.8 393.5,383.1 393.8,383.4 
			394.1,383.2 394.4,383.3 394.8,384 395.1,383.1 395.4,382.3 395.7,382.3 396.1,382.6 396.4,383 396.7,383 397.1,383.1 
			397.4,383.4 397.7,383.4 398,382.3 398.4,383.1 398.7,383 399,383.4 399.3,383.1 399.7,381.8 400,381.4 400.3,382.2 400.6,381.9 
			401,381.9 401.3,380.2 401.6,380.2 402,382.4 402.3,382.1 402.6,382.6 402.9,382.2 403.3,382 403.6,382.1 403.9,382.2 
			404.2,381.9 404.6,381.8 404.9,382.4 405.2,381.9 405.6,383.2 405.9,382.3 406.2,382.2 406.5,383.3 406.9,383.8 407.2,383.7 
			407.5,383.1 407.8,383.1 408.2,382.7 408.5,383.5 408.8,383.6 409.1,383.6 409.5,383.8 409.8,383.5 410.1,383.3 410.5,383.4 
			410.8,383.3 411.1,384 411.4,384 411.8,384.9 412.1,375.1 412.4,383.1 412.7,384.1 413.1,384.4 413.4,384.6 413.7,384 
			414.1,383.5 414.4,383.5 414.7,382.9 415,383.9 415.4,384.6 415.7,385.9 416,385.3 416.3,386.3 416.7,386.4 417,385.9 
			417.3,385.8 417.6,386.9 418,387.8 418.3,387.3 418.6,386.8 419,388.2 419.3,389.4 419.6,387.8 419.9,387.1 420.3,387.2 
			420.6,387.8 420.9,387.9 421.2,389.1 421.6,389 421.9,387.2 422.2,386.6 422.6,387.1 422.9,387.5 423.2,388 423.5,386.4 
			423.9,386.4 424.2,387.1 424.5,387.2 424.8,387.3 425.2,387.7 425.5,387.9 425.8,387.6 426.1,387.8 426.5,387.4 426.8,387.7 
			427.1,387.7 427.5,387.6 427.8,387.9 428.1,388.2 428.4,389.4 428.8,388.2 429.1,383.6 429.4,387 429.7,387.5 430.1,387.9 
			430.4,387.8 430.7,388 431.1,388.2 431.4,388.3 431.7,387.5 432,387.7 432.4,388.3 432.7,387 433,386.8 433.3,387.1 433.7,387.4 
			434,387.3 434.3,387.8 434.6,388.1 435,388 435.3,388 435.6,388.2 436,388.4 436.3,390.7 436.6,387.8 436.9,387.7 437.3,387 
			437.6,387.2 437.9,384.1 438.2,386.7 438.6,387.1 438.9,387.2 439.2,388.6 439.6,387.4 439.9,387.8 440.2,388.3 440.5,388.9 
			440.9,387.8 441.2,387.4 441.5,387.1 441.8,388.4 442.2,387.6 442.5,386.1 442.8,386.7 443.1,386.9 443.5,387.4 443.8,387.6 
			444.1,388 444.5,388.1 444.8,387.8 445.1,388.2 445.4,387.8 445.8,386.8 446.1,387.6 446.4,388.3 446.7,388 447.1,388.2 
			447.4,388.4 447.7,387.8 448.1,387.9 448.4,388.4 448.7,388.7 449,388.7 449.4,388.4 449.7,387.8 450,388.2 450.3,388.4 
			450.7,388.4 451,388.6 451.3,388.5 451.6,388.7 452,388.5 452.3,388.8 452.6,388.5 453,388.4 453.3,389.4 453.6,389.1 453.9,388 
			454.3,387.5 454.6,388.7 454.9,388.8 455.2,388.8 455.6,387.4 455.9,387.7 456.2,388.1 456.6,387.9 456.9,387.5 457.2,387.7 
			457.5,388.3 457.9,388.2 458.2,387.5 458.5,387 458.8,387.4 459.2,386.4 459.5,386.5 459.8,386.4 460.1,385.8 460.5,385.9 
			460.8,386.6 461.1,386.3 461.5,385.7 461.8,386.8 462.1,387 462.4,386 462.8,385.1 463.1,385 463.4,387.2 463.7,387.2 
			464.1,387.1 464.4,386.6 464.7,386.8 465.1,387 465.4,386.1 465.7,385.8 466,387.1 466.4,387 466.7,385.9 467,386.2 467.3,386.4 
			467.7,385.8 468,385.6 468.3,386.2 468.6,385.6 469,385.6 469.3,386 469.6,387.5 470,386 470.3,385.9 470.6,386.8 470.9,386.7 
			471.3,388.3 471.6,383.6 471.9,385.2 472.2,385.9 472.6,385.2 472.9,385.4 473.2,386.4 473.6,386.3 473.9,386.7 474.2,385.4 
			474.5,383 474.9,384.8 475.2,386.2 475.5,386.9 475.8,386.3 476.2,387.7 476.5,388 476.8,387.2 477.1,387.6 477.5,387.7 
			477.8,387.9 478.1,387.2 478.5,387.8 478.8,387.8 479.1,388 479.4,387.8 479.8,387.5 480.1,388.3 480.4,388.6 480.7,388.7 
			481.1,388.4 481.4,388.1 481.7,388 482.1,388.5 482.4,388.3 482.7,388 483,387.2 483.4,387.4 483.7,388.2 484,388.2 484.3,388.2 
			484.7,387.2 485,388.2 485.3,388.6 485.6,387.8 486,387.5 486.3,388.3 486.6,387 487,387.2 487.3,387.3 487.6,386.9 487.9,387.5 
			488.3,388.8 488.6,387.6 488.9,387.9 489.2,388.3 489.6,389.3 489.9,389.4 490.2,388.9 490.6,389 490.9,389.2 491.2,389.1 
			491.5,389.3 491.9,388.7 492.2,388.7 492.5,388.4 492.8,389.2 493.2,388 493.5,387.8 493.8,389.1 494.1,388.9 494.5,389.2 
			494.8,389 495.1,388.5 495.5,388.2 495.8,389.2 496.1,388.9 496.4,387.5 496.8,388.6 497.1,390.1 497.4,389.8 497.7,389 
			498.1,388.5 498.4,387.7 498.7,388.6 499.1,388.3 499.4,389.4 499.7,389.4 500,389.2 500.4,389.2 500.7,389.5 501,389.9 
			501.3,389.1 501.7,389.8 502,389.4 502.3,389.7 502.6,388.7 503,389.6 503.3,389.1 503.6,389.2 504,388.8 504.3,389.6 504.6,390 
			504.9,389.5 505.3,388.4 505.6,387.8 505.9,389.8 506.2,389.3 506.6,389.5 506.9,389 507.2,388.6 507.6,389.2 507.9,389.7 
			508.2,389.1 508.5,389 508.9,389.5 509.2,389.5 509.5,389.9 509.8,389.2 510.2,389.5 510.5,389.9 510.8,389.8 511.1,389.3 
			511.5,389.6 511.8,388.9 512.1,389.8 512.5,389 512.8,387.4 513.1,385.8 513.4,386.6 513.8,389 514.1,389.3 514.4,388.2 
			514.7,388.6 515.1,389.2 515.4,389.7 515.7,390 516.1,389.6 516.4,389.4 516.7,389.9 517,389.9 517.4,390.5 517.7,390 518,389.2 
			518.3,389.1 518.7,389.6 519,389.7 519.3,389.2 519.6,388.2 520,389.9 520.3,389.6 520.6,388.7 521,389.9 521.3,390.3 
			521.6,388.1 521.9,388.4 522.3,387.6 522.6,387.9 522.9,389.5 523.2,389.9 523.6,390.7 523.9,389.5 524.2,390 524.6,390.1 
			524.9,390.2 525.2,389.7 525.5,389.9 525.9,390.3 526.2,389.6 526.5,389.1 526.8,389.4 527.2,390.7 527.5,390.4 527.8,389.6 
			528.1,390.1 528.5,390.3 528.8,390 529.1,390 529.5,390.7 529.8,390.6 530.1,390.7 530.4,390.9 530.8,390.8 531.1,389.6 
			531.4,389.8 531.7,390.2 532.1,390.4 532.4,390.6 532.7,391 533.1,390.7 533.4,390.7 533.7,391.2 534,391.2 534.4,389.8 
			534.7,389.6 535,390.7 535.3,390.9 535.7,391.3 536,391 536.3,391.2 536.6,391.2 537,391.5 537.3,390.8 537.6,390.9 538,391.8 
			538.3,390.9 538.6,392 538.9,391 539.3,390.3 539.6,390.8 539.9,391.1 540.2,391 540.6,389.5 540.9,390.2 541.2,391.1 
			541.6,391.3 541.9,391 542.2,391.9 542.5,391.8 542.9,391.8 543.2,392.1 543.5,392 543.8,392.5 544.2,391.6 544.5,390.7 
			544.8,390.6 545.1,391.5 545.5,391.3 545.8,391.3 546.1,390.7 546.5,391.1 546.8,390.5 547.1,390.4 547.4,391.2 547.8,390.6 
			548.1,390 548.4,390.2 548.7,390.3 549.1,389.8 549.4,389.3 549.7,389.1 550.1,389.5 550.4,390.1 550.7,389.6 551,389.5 
			551.4,390.8 551.7,390.6 552,389.6 552.3,390.2 552.7,390.4 553,390.1 553.3,388.4 553.6,389.1 554,388.3 554.3,387 554.6,388 
			555,389 555.3,387.1 555.6,386.5 555.9,387.1 556.3,388 556.6,389.1 556.9,387.7 557.2,386.6 557.6,385.8 557.9,386.4 
			558.2,386.8 558.6,385.2 558.9,385.4 559.2,384.8 559.5,384.8 559.9,385.7 560.2,385.1 560.5,384.6 560.8,385.4 561.2,384.4 
			561.5,384.1 561.8,385.5 562.1,385 562.5,384.3 562.8,384.2 563.1,384.1 563.5,383.8 563.8,384.8 564.1,385.5 564.4,384.8 
			564.8,384.4 565.1,384.2 565.4,384.6 565.7,385.1 566.1,384.4 566.4,384.8 566.7,384.3 567.1,384.7 567.4,384.3 567.7,384 
			568,384.7 568.4,381.4 568.7,377.8 569,380.1 569.3,379.8 569.7,379.8 570,379.7 570.3,382.2 570.6,382.8 571,382.7 571.3,379.2 
			571.6,380.7 572,384.8 572.3,385.1 572.6,383.5 572.9,383.2 573.3,384.6 573.6,383.4 573.9,384.2 574.2,383.6 574.6,384.2 
			574.9,384.6 575.2,384.6 575.6,384.6 575.9,384.9 576.2,384.5 576.5,384.9 576.9,383.6 577.2,379.9 577.5,381.9 577.8,382 
			578.2,383.5 578.5,383.6 578.8,383.9 579.1,383.7 579.5,383.8 579.8,384.3 580.1,385.7 580.5,385.1 580.8,384.7 581.1,385.1 
			581.4,385.2 581.8,385 582.1,385.4 582.4,385.6 582.7,385 583.1,385.1 583.4,385.1 583.7,384.5 584.1,384.6 584.4,384.8 
			584.7,383.5 585,383.8 585.4,384.4 585.7,383.9 586,384.2 586.3,384.2 586.7,383.8 587,383.9 587.3,384.2 587.6,384.4 588,385.1 
			588.3,385 588.6,385.8 589,383 589.3,382.8 589.6,384.8 589.9,383.9 590.3,384.8 590.6,385.7 590.9,384.3 591.2,384 591.6,383.7 
			591.9,385 592.2,383.3 592.6,383.2 592.9,382.4 593.2,383.1 593.5,382.7 593.9,383.8 594.2,382.4 594.5,383.5 594.8,382.5 
			595.2,381.6 595.5,381.9 595.8,382.8 596.1,383.5 596.5,383 596.8,383.4 597.1,382.7 597.5,382.8 597.8,383.2 598.1,384 
			598.4,382.8 598.8,382.6 599.1,383.8 599.4,384.3 599.7,384.6 600.1,384.4 600.4,384.2 600.7,384.6 601.1,385 601.4,384 
			601.7,383.2 602,384.8 602.4,385.6 602.7,385.2 603,385.2 603.3,385.8 603.7,385.2 604,385.6 604.3,386.6 604.6,386.1 605,386.2 
			605.3,387.1 605.6,386.9 606,386.3 606.3,386.6 606.6,387.1 606.9,387.4 607.3,387 607.6,387.1 607.9,386.6 608.2,387.1 
			608.6,385.8 608.9,385.6 609.2,387 609.6,386.8 609.9,387.4 610.2,387.6 610.5,388 610.9,387.5 611.2,387.9 611.5,388.2 
			611.8,387 612.2,386.5 612.5,387.9 612.8,388.8 613.1,388.5 613.5,387.4 613.8,387.8 614.1,388 614.5,387 614.8,387.9 
			615.1,387.1 615.4,387.4 615.8,388.7 616.1,387.6 616.4,387 616.7,387.4 617.1,387.8 617.4,388.1 617.7,388.3 618.1,387.7 
			618.4,387.2 618.7,388.7 619,388.4 619.4,387.8 619.7,387.2 620,388.2 620.3,388 620.7,388.6 621,388 621.3,388.3 621.6,388.4 
			622,388 622.3,389.4 622.6,388.2 623,387.7 623.3,389.2 623.6,388.9 623.9,389 624.3,387 624.6,386.2 624.9,388.3 625.2,388.5 
			625.6,388.4 625.9,389.8 626.2,389.7 626.6,389.1 626.9,389.4 627.2,388.3 627.5,388.8 627.9,388.5 628.2,387.8 628.5,388.2 
			628.8,388.8 629.2,389.8 629.5,389.2 629.8,388.2 630.1,388.6 630.5,389 630.8,389 631.1,387.9 631.5,388 631.8,388.3 632.1,389 
			632.4,389.5 632.8,388.6 633.1,388 633.4,388.8 633.7,389.1 634.1,389.2 634.4,389.5 634.7,389.1 635.1,389.3 635.4,389.1 
			635.7,388.7 636,383.2 636.4,383.1 636.7,386.8 637,385.4 637.3,385.4 637.7,387.4 638,388.8 638.3,388.9 638.6,388.7 639,389.6 
			639.3,388.8 639.6,389.5 640,389 640.3,388.6 640.6,389.5 640.9,389 641.3,390 641.6,388.7 641.9,391 642.2,390.7 642.6,391.2 
			642.9,390.8 643.2,390.3 643.6,391.1 643.9,390.6 644.2,390 644.5,389.8 644.9,390 645.2,390.4 645.5,390.7 645.8,390.2 
			646.2,390.2 646.5,389.7 646.8,389 647.1,387.5 647.5,388.2 647.8,389.1 648.1,388.4 648.5,389.8 648.8,390.3 649.1,389.7 
			649.4,389.6 649.8,389.2 650.1,387.7 650.4,389.1 650.7,389.8 651.1,389.5 651.4,389.1 651.7,389.6 652.1,389.3 652.4,389.4 
			652.7,389.3 653,389.4 653.4,388.8 653.7,389.1 654,389.6 654.3,389.2 654.7,389.9 655,389.4 655.3,388.6 655.6,389.1 656,389.5 
			656.3,388.7 656.6,387.4 657,388.6 657.3,389.5 657.6,389.1 657.9,388.8 658.3,387.8 658.6,388.4 658.9,390.4 659.2,388.2 
			659.6,389.7 659.9,389.6 660.2,388 660.6,389 660.9,388.9 661.2,389 661.5,389.7 661.9,389.6 662.2,390 662.5,389.8 662.8,388.3 
			663.2,388.6 663.5,389 663.8,390.1 664.1,390.2 664.5,390.3 664.8,389.6 665.1,389.6 665.5,389.4 665.8,389.4 666.1,389 
			666.4,389.4 666.8,389.2 667.1,389 667.4,389.2 667.7,389.6 668.1,389.9 668.4,389.4 668.7,389.2 669.1,389 669.4,388.5 
			669.7,389.4 670,389 670.4,389.4 670.7,390 671,389.2 671.3,389.2 671.7,388.2 672,388.2 672.3,388.6 672.6,388.6 673,388.3 
			673.3,388.3 673.6,387.2 674,387.6 674.3,388.3 674.6,387.3 674.9,387 675.3,386.7 675.6,387.5 675.9,388.9 676.2,389 
			676.6,386.4 676.9,387.3 677.2,387.6 677.6,387.9 677.9,387.1 678.2,387.6 678.5,387.4 678.9,386.2 679.2,386.3 679.5,385.2 
			679.8,387.1 680.2,386.4 680.5,387.4 680.8,386.2 681.1,386.2 681.5,386.4 681.8,386.3 682.1,386.2 682.5,386.6 682.8,385.5 
			683.1,385.7 683.4,385.5 683.8,384.9 684.1,386.1 684.4,385.3 684.7,384.3 685.1,382.5 685.4,381.7 685.7,382.7 686.1,383.1 
			686.4,383.2 686.7,382 687,382.1 687.4,381.6 687.7,379.7 688,379.7 688.3,379.8 688.7,381 689,380 689.3,379.9 689.6,379.3 
			690,378 690.3,376.7 690.6,376.9 691,377.1 691.3,374.7 691.6,375 691.9,373.8 692.3,376.8 692.6,378.6 692.9,375.8 693.2,373.5 
			693.6,373.8 693.9,371.4 694.2,370.9 694.6,371.2 694.9,369.9 695.2,370 695.5,369.6 695.9,370.1 696.2,369.5 696.5,369.3 
			696.8,370 697.2,373.1 697.5,370.8 697.8,371.9 698.1,372.9 698.5,371.6 698.8,371.9 699.1,372.7 699.5,372.6 699.8,373.2 
			700.1,373.3 700.4,372.6 700.8,373.4 701.1,374.6 701.4,376.1 701.7,375.3 702.1,373.8 702.4,375.6 702.7,375.6 703.1,375.2 
			703.4,375.3 703.7,375.1 704,375.4 704.4,376.3 704.7,376.7 705,375.6 705.3,376.8 705.7,378.1 706,377 706.3,377 706.6,377.5 
			707,378 707.3,378.3 707.6,379.8 708,380.2 708.3,378.9 708.6,378.8 708.9,379.9 709.3,380.6 709.6,381.2 709.9,380.5 
			710.2,378.3 710.6,380.4 710.9,379 711.2,380.7 711.6,379.4 711.9,378.7 712.2,379.4 712.5,380.3 712.9,380 713.2,380.3 
			713.5,381.1 713.8,379.9 714.2,379.9 714.5,380.5 714.8,381.6 715.1,381.5 715.5,381.5 715.8,380.2 716.1,380.8 716.5,381.1 
			716.8,381.1 717.1,380.6 717.4,381.5 717.8,380.8 718.1,381.4 718.4,382.2 718.7,380.9 719.1,380.7 719.4,380.1 719.7,379.7 
			720.1,379.5 720.4,380.8 720.7,380.6 721,381.5 721.4,381.9 721.7,381.1 722,381.1 722.3,381.8 722.7,381.1 723,381.9 
			723.3,382.6 723.6,381.4 724,382.5 724.3,382.6 724.6,384 725,382.6 725.3,382.8 725.6,383 725.9,383.1 726.3,384.2 726.6,383.7 
			726.9,382.5 727.2,383.2 727.6,381.8 727.9,383.3 728.2,384.3 728.6,383 728.9,384.8 729.2,385.3 729.5,383.6 729.9,384.2 
			730.2,384 730.5,384.5 730.8,384.7 731.2,383.5 731.5,384.3 731.8,383.2 732.1,380.6 732.5,382.4 732.8,383.6 733.1,383.1 
			733.5,383.4 733.8,383.1 734.1,383.7 734.4,383.5 734.8,383.2 735.1,383.4 735.4,384 735.7,383.3 736.1,383.8 736.4,384.1 
			736.7,384.2 737.1,383.9 737.4,383.6 737.7,383.9 738,383.6 738.4,382.8 738.7,383.2 739,384.1 739.3,384.2 739.7,383.9 
			740,384.7 740.3,384.3 740.6,384.5 741,384.9 741.3,385.4 741.6,385.3 742,384.6 742.3,385.2 742.6,386.3 742.9,386.3 
			743.3,385.2 743.6,385.8 743.9,385 744.2,386.3 744.6,385.5 744.9,386 745.2,386.3 745.6,386.7 745.9,386.8 746.2,386.4 
			746.5,385.9 746.9,386.2 747.2,386.3 747.5,386.6 747.8,386.8 748.2,385.2 748.5,385.5 748.8,385.2 749.1,386 749.5,386 
			749.8,386.2 750.1,386.1 750.5,385.5 750.8,385.8 751.1,385.4 751.4,385.4 751.8,385.6 752.1,386 752.4,386.7 752.7,385 
			753.1,386.3 753.4,386 753.7,386.1 754.1,386.2 754.4,385.8 754.7,385.8 755,386.1 755.4,384.8 755.7,384.9 756,385.8 
			756.3,385.8 756.7,387.3 757,385.2 757.3,385.9 757.6,386.5 758,386.4 758.3,381.8 758.6,384.1 759,385.1 759.3,385.9 
			759.6,387.9 759.9,387 760.3,386.6 760.6,386.6 760.9,386.6 761.2,387.6 761.6,387.9 761.9,386.4 762.2,386.7 762.6,387.5 
			762.9,386.6 763.2,387.8 763.5,387.9 763.9,387.7 764.2,387.7 764.5,386.8 764.8,385.9 765.2,386.8 765.5,387 765.8,387.7 
			766.1,388.4 766.5,388.2 766.8,386.7 767.1,387.7 767.5,387.1 767.8,387.5 768.1,388 768.4,387.1 768.8,387.5 769.1,387.9 
			769.4,387.2 769.7,387.6 770.1,387 770.4,388.2 770.7,387.9 771.1,388.6 771.4,387.9 771.7,388.1 772,388.7 772.4,390.2 
			772.7,388.8 773,389.4 773.3,389.1 773.7,386.3 774,386.3 774.3,387.2 774.6,387.5 775,387.8 775.3,387.9 775.6,388.4 776,389.2 
			776.3,389.5 776.6,387.1 776.9,386.5 777.3,388.2 777.6,388.3 777.9,388.9 778.2,389.1 778.6,388.6 778.9,387.9 779.2,388.4 
			779.6,388 779.9,388.3 780.2,387.8 780.5,389.1 780.9,388.9 781.2,389 781.5,389.4 781.8,388.4 782.2,389.5 782.5,389.7 
			782.8,388.6 783.1,387.6 783.5,388.7 783.8,390 784.1,388.8 784.5,389.9 784.8,389.5 785.1,389.2 785.4,389.4 785.8,389.3 
			786.1,389.7 786.4,390 786.7,389.7 787.1,390.5 787.4,390 787.7,390.4 788.1,389.6 788.4,390 788.7,390.2 789,390 789.4,389.8 
			789.7,390.8 790,390.4 790.3,390.7 790.7,390.6 791,391.2 791.3,390.7 791.6,390.7 792,391.3 792.3,390.7 792.6,390.6 793,390 
			793.3,390.7 793.6,390.7 793.9,391 794.3,391.5 794.6,391 794.9,390.5 795.2,389.9 795.6,390.3 795.9,392.4 796.2,391.2 
			796.6,390.3 796.9,391 797.2,389.9 797.5,389.2 797.9,390.6 798.2,390.7 798.5,391.1 798.8,391.9 799.2,391.2 799.5,390.3 
			799.8,390.4 800.1,391.9 800.5,392 800.8,391.8 801.1,391.5 801.5,391.2 801.8,391.6 802.1,391.4 802.4,391.9 802.8,391.7 
			803.1,391.6 803.4,390.6 803.7,391 804.1,392.2 804.4,391.9 804.7,391.9 805.1,391.6 805.4,391.4 805.7,391.6 806,391.4 
			806.4,391.7 806.7,392.2 807,391.9 807.3,391.8 807.7,392 808,392.2 808.3,392.2 808.6,392.2 809,391.6 809.3,391.5 809.6,391.8 
			810,392.4 810.3,392.2 810.6,391.3 810.9,392 811.3,392.4 811.6,391.5 811.9,391.7 812.2,391.1 812.6,390.7 812.9,391.9 
			813.2,391.2 813.6,392.2 813.9,392.3 814.2,391.8 814.5,391.9 814.9,392.6 815.2,392.3 815.5,392.2 815.8,391.7 816.2,391.8 
			816.5,392.3 816.8,392.7 817.1,392.5 817.5,391.5 817.8,390.7 818.1,391.4 818.5,392 818.8,392.2 819.1,392.2 819.4,391.7 
			819.8,392.4 820.1,392.3 820.4,392.7 820.7,392.6 821.1,392.4 821.4,392.2 821.7,392.1 822.1,392.1 822.4,392.2 822.7,392.2 
			823,392.3 823.4,392.6 823.7,392.8 824,392.9 824.3,393.2 824.7,393.2 825,393 825.3,392.2 825.6,392.6 826,392.2 826.3,393 
			826.6,394 827,393.1 827.3,392.4 827.6,392.9 827.9,393 828.3,392.3 828.6,392.8 828.9,393.8 829.2,393.4 829.6,393.2 
			829.9,392.7 830.2,393.5 830.6,393.8 830.9,393.5 831.2,393.2 831.5,394 831.9,393.2 832.2,393.4 832.5,392.7 832.8,392.7 
			833.2,393.8 833.5,393.8 833.8,393.4 834.1,393 834.5,393.5 834.8,393.8 835.1,393.8 835.5,393.9 835.8,393 836.1,393.4 
			836.4,393.7 836.8,393.4 837.1,393.8 837.4,393.1 837.7,393.1 838.1,393.5 838.4,393.3 838.7,393.5 839.1,393.2 839.4,393.8 
			839.7,393.5 840,393.6 840.4,390.2 840.7,391.6 841,392.4 841.3,392.3 841.7,392.7 842,393.2 842.3,394 842.6,393.8 843,393.9 
			843.3,393.6 843.6,393.2 844,393.7 844.3,393.8 844.6,393.9 844.9,394.4 845.3,393.5 845.6,393.5 845.9,393.4 846.2,393 
			846.6,394.2 846.9,393.8 847.2,394.7 847.6,394.7 847.9,394.5 848.2,394.7 848.5,395 848.9,394.4 849.2,394.6 849.5,394.5 
			849.8,394.7 850.2,393.8 850.5,393.9 850.8,393.9 851.1,395.5 851.5,395.2 851.8,395.3 852.1,394.5 852.5,394.2 852.8,394.7 
			853.1,394.7 853.4,394.8 853.8,394.7 854.1,394.7 854.4,394.3 854.7,395 855.1,395.2 855.4,394.7 855.7,394.8 856.1,394.8 
			856.4,395.1 856.7,395 857,395.1 857.4,395.3 857.7,395.2 858,395.1 858.3,395.2 858.7,394.9 859,395.1 859.3,395.1 859.6,394.8 
			860,394.9 860.3,394.9 860.6,394.8 861,394.6 861.3,394 861.6,394 861.9,395.7 862.3,395 862.6,394.8 862.9,394.3 863.2,394.7 
			863.6,395 863.9,395.4 864.2,393.8 864.6,394.2 864.9,394.3 865.2,394.8 865.5,394.5 865.9,394.7 866.2,394.5 866.5,394.8 
			866.8,395 867.2,395.2 867.5,395.7 867.8,395.7 868.1,394.4 868.5,394.2 868.8,394.4 869.1,394.9 869.5,395.1 869.8,394.8 
			870.1,394.7 870.4,394.7 870.8,394.8 871.1,394.5 871.4,394.6 871.7,395.2 872.1,394.9 872.4,395.2 872.7,395 873.1,395.1 
			873.4,394.8 873.7,395 874,395 874.4,394.8 874.7,395.4 875,395.2 875.3,395 875.7,394.8 876,395.2 876.3,394.8 876.6,395.1 
			877,394.9 877.3,395.2 877.6,394.6 878,394.6 878.3,395.2 878.6,395.5 878.9,393.8 879.3,394.2 879.6,394.8 879.9,394.7 
			880.2,395.2 880.6,395.5 880.9,394.7 881.2,395.2 881.6,395.8 881.9,395.6 882.2,395 882.5,394.7 882.9,394.9 883.2,395.2 
			883.5,391.2 883.8,218.3 884.2,14.9 884.5,29.8 		"/>
	</g>
	<path class="st3" d="M44.3,7.3v400h850 M113,407.3v3 M198.3,407.3v3 M283.6,407.3v3 M368.9,407.3v3 M454.3,407.3v3 M539.3,407.3v3
		 M624.6,407.3v3 M709.9,407.3v3 M795.2,407.3v3 M880.6,407.3v3 M44.3,407.3h-3 M44.3,350.2h-3 M44.3,293h-3 M44.3,235.9h-3
		 M44.3,178.7h-3 M44.3,121.6h-3 M44.3,64.4h-3 M44.3,7.6h-3"/>
	<text transform="matrix(1 0 0 1 99.6084 421.8037)" class="st4 st5">1975</text>
	<text transform="matrix(1 0 0 1 184.9365 421.8037)" class="st4 st5">1980</text>
	<text transform="matrix(1 0 0 1 270.2646 421.8037)" class="st4 st5">1985</text>
	<text transform="matrix(1 0 0 1 355.5928 421.8037)" class="st4 st5">1990</text>
	<text transform="matrix(1 0 0 1 440.9209 421.8037)" class="st4 st5">1995</text>
	<text transform="matrix(1 0 0 1 525.9209 421.8037)" class="st4 st5">2000</text>
	<text transform="matrix(1 0 0 1 611.249 421.8037)" class="st4 st5">2005</text>
	<text transform="matrix(1 0 0 1 696.5771 421.8037)" class="st4 st5">2010</text>
	<text transform="matrix(1 0 0 1 781.8975 421.8037)" class="st4 st5">2015</text>
	<text transform="matrix(1 0 0 1 867.2256 421.8037)" class="st4 st5">2020</text>
	<text transform="matrix(1 0 0 1 33.2334 412.3037)" class="st4 st5">0</text>
	<text transform="matrix(1 0 0 1 23.2256 355.1631)" class="st4 st5">1.0</text>
	<text transform="matrix(1 0 0 1 23.2256 298.0146)" class="st4 st5">2.0</text>
	<text transform="matrix(1 0 0 1 23.2256 240.874)" class="st4 st5">3.0</text>
	<text transform="matrix(1 0 0 1 23.2256 183.7256)" class="st4 st5">4.0</text>
	<text transform="matrix(1 0 0 1 23.2256 126.585)" class="st4 st5">5.0</text>
	<text transform="matrix(1 0 0 1 23.2256 69.4521)" class="st4 st5">6.0</text>
	<text transform="matrix(1 0 0 1 23.2256 12.3037)" class="st4 st5">7.0</text>
	<text transform="matrix(1 0 0 1 457.6318 435.3037)" class="st4 st5">year</text>
	<text transform="matrix(0 -1 1 0 11.3037 282.6475)" class="st4 st5">weekly new claims (millions)</text>
</g>
<text transform="matrix(1 0 0 1 718.1502 250.2976)" class="st6 st5">21 Mar 2020: 3,307,000</text>
<text transform="matrix(1 0 0 1 545.3232 349.9644)" class="st6 st5">28 Mar 2009: 665,000</text>
<text transform="matrix(1 0 0 1 101.6982 345.9644)" class="st6 st5">2 Oct 1982: 695,000</text>
<text transform="matrix(1 0 0 1 76.1502 40.2976)" class="st6 st5">new claims for unemployment compensation</text>
<text transform="matrix(1 0 0 1 710.1502 43.6309)" class="st6 st5">28 Mar 2020: 6,867,000</text>
<text transform="matrix(1 0 0 1 714.1502 62.2976)" class="st6 st5">4 Apr 2020: 6,606,000</text>
<g>
	<g>
		<line class="st7" x1="844.8" y1="242" x2="872.8" y2="224.6"/>
		<g>
			<polygon points="881.4,219.2 872.3,231.8 872.1,225 866.2,221.8 			"/>
		</g>
	</g>
</g>
<g>
	<g>
		<line class="st7" x1="842.3" y1="39.5" x2="870.2" y2="22.1"/>
		<g>
			<polygon points="878.9,16.7 869.8,29.3 869.6,22.5 863.6,19.3 			"/>
		</g>
	</g>
</g>
<g>
	<g>
		<line class="st7" x1="845.3" y1="54.6" x2="873.2" y2="37.3"/>
		<g>
			<polygon points="881.8,31.9 872.8,44.4 872.5,37.7 866.6,34.5 			"/>
		</g>
	</g>
</g>
<g>
	<g>
		<line class="st7" x1="666.9" y1="348.6" x2="684.5" y2="361.1"/>
		<g>
			<polygon points="692.8,367 677.7,363.5 683.9,360.7 684.5,353.9 			"/>
		</g>
	</g>
</g>
<g>
	<g>
		<line class="st7" x1="215.6" y1="345" x2="233.2" y2="357.5"/>
		<g>
			<polygon points="241.5,363.4 226.4,359.9 232.6,357.1 233.2,350.3 			"/>
		</g>
	</g>
</g>
</svg>
